<svg width="81" height="30" viewBox="0 0 81 30" fill="none" xmlns="http://www.w3.org/2000/svg">
<g clip-path="url(#clip0_1_912)">
<path d="M59.4911 28.2817L66.1627 20.8925L59.4911 13.5022H66.5304L69.8347 17.0919L73.0167 13.5022H79.8104L73.1704 20.8619L79.9015 28.2817H72.8333L69.5589 24.6625L66.3154 28.2817H59.4911Z" fill="#FF6600"/>
<path d="M59.491 10.1891H51.9348V13.5022H59.491V18.4952H51.9348V23.0782H59.491V28.2817H46.3811V5H59.491V10.1891Z" fill="#FF6600"/>
<path d="M40.8508 5V14.528H40.7899C39.5656 13.1408 38.0358 12.6587 36.2609 12.6587C32.625 12.6587 29.8863 15.0951 28.9249 18.3162C27.8285 14.767 25.001 12.5922 20.8083 12.5922C17.4035 12.5922 14.7148 14.0987 13.3117 16.5536V13.5025H6.27374V10.1898H13.9541V5H0V28.2821H6.27374V18.4952H12.527C12.3405 19.2142 12.241 19.9839 12.241 20.7961C12.241 25.6527 16.0049 29.0603 20.8083 29.0603C24.8477 29.0603 27.5096 27.1911 28.9176 23.7831H23.5412C22.8139 24.8069 22.2623 25.111 20.8083 25.111C19.1224 25.111 17.6689 23.661 17.6689 21.9423H28.6164C29.0911 25.7998 32.1395 29.1265 36.3228 29.1265C38.1273 29.1265 39.7795 28.2515 40.7899 26.7742H40.8508V28.2814H46.3812V5H40.8508ZM17.8435 18.5648C18.1924 17.0861 19.3558 16.1195 20.8083 16.1195C22.4073 16.1195 23.5117 17.0562 23.8021 18.5648C23.9245 18.5648 17.8435 18.5648 17.8435 18.5648ZM37.4946 24.7369C35.456 24.7369 34.1892 22.8646 34.1892 20.9096C34.1892 18.8199 35.2911 16.8104 37.4946 16.8104C39.7795 16.8104 40.6897 18.8199 40.6897 20.9096C40.6894 22.8913 39.7249 24.7369 37.4946 24.7369Z" fill="#652C8F"/>
</g>
<defs>
<clipPath id="clip0_1_912">
<rect width="80" height="30" fill="white" transform="translate(0.5)"/>
</clipPath>
</defs>
</svg>
