<svg width="112" height="30" viewBox="0 0 112 30" fill="none" xmlns="http://www.w3.org/2000/svg">
<g clip-path="url(#clip0_1_17)">
<path d="M18.2053 28.9731C17.3737 29.8048 16.0483 29.8221 15.2426 29.0164L0.593542 14.3804C-0.212113 13.5747 -0.190456 12.2493 0.636856 11.4176L11.6865 0.359375L29.2549 17.9149L18.2053 28.9731Z" fill="#309255"/>
<path d="M11.6851 0.359156L8.99753 3.0498L26.5695 20.6019L29.2571 17.9112L11.6851 0.359156Z" fill="#1D2733"/>
<path d="M15.1947 29.0034C16.0264 29.835 17.3518 29.8567 18.1575 29.051L32.8109 14.415C33.6165 13.6093 33.5949 12.2839 32.7675 11.4522L21.7179 0.389648L4.14514 17.9408L15.1947 29.0034Z" fill="#309255"/>
<path opacity="0.5" d="M25.0013 15.7491C25.5861 16.3338 26.5217 16.3512 27.0934 15.7837L28.0637 14.9131C28.6311 14.3457 28.6181 13.4101 28.0334 12.821L22.8226 7.63623L19.7949 10.5643L25.0013 15.7491Z" fill="white"/>
<path d="M21.7185 0.388253L4.14905 17.9453L6.83742 20.6356L24.4069 3.07852L21.7185 0.388253Z" fill="#FFA200"/>
</g>
<path d="M40.7245 20.451V5.18756H50.6893V7.43346H43.5155V11.62H50.0352V13.8005H43.5155V18.2051H50.6893V20.451H40.7245Z" fill="#1D2733"/>
<path d="M58.2365 20.7126C57.2189 20.7126 56.3104 20.4655 55.5109 19.9712C54.7114 19.477 54.079 18.8011 53.6139 17.9434C53.1487 17.0857 52.9161 16.1118 52.9161 15.0215C52.9161 13.9313 53.1487 12.9646 53.6139 12.1215C54.079 11.2638 54.7114 10.5952 55.5109 10.1155C56.3104 9.62121 57.2189 9.37409 58.2365 9.37409C59.0506 9.37409 59.7628 9.52673 60.3734 9.83199C60.9839 10.1373 61.4782 10.5661 61.8561 11.1185V4.75146H64.6471V20.451H62.1614L61.8561 18.9028C61.5072 19.3825 61.0421 19.8041 60.4606 20.1675C59.8937 20.5309 59.1523 20.7126 58.2365 20.7126ZM58.8252 18.2705C59.7265 18.2705 60.4606 17.9725 61.0275 17.3765C61.609 16.7659 61.8997 15.9882 61.8997 15.0434C61.8997 14.0985 61.609 13.328 61.0275 12.732C60.4606 12.1215 59.7265 11.8162 58.8252 11.8162C57.9385 11.8162 57.2044 12.1142 56.6229 12.7102C56.0415 13.3062 55.7508 14.0767 55.7508 15.0215C55.7508 15.9664 56.0415 16.7441 56.6229 17.3547C57.2044 17.9652 57.9385 18.2705 58.8252 18.2705Z" fill="#1D2733"/>
<path d="M71.545 20.7126C70.1931 20.7126 69.1464 20.291 68.4051 19.4479C67.6782 18.6048 67.3148 17.3692 67.3148 15.7411V9.63575H70.084V15.4794C70.084 16.4098 70.273 17.1221 70.651 17.6163C71.0289 18.1106 71.6249 18.3577 72.439 18.3577C73.2094 18.3577 73.8417 18.0815 74.336 17.5291C74.8448 16.9767 75.0991 16.2063 75.0991 15.2178V9.63575H77.8902V20.451H75.4262L75.2082 18.6193C74.8738 19.259 74.3869 19.7677 73.7472 20.1457C73.1222 20.5236 72.3881 20.7126 71.545 20.7126Z" fill="#1D2733"/>
<path d="M80.7553 20.451V9.63575H83.2192L83.4591 11.0967C83.808 10.5734 84.2659 10.1591 84.8328 9.8538C85.4143 9.53399 86.0829 9.37409 86.8388 9.37409C88.5105 9.37409 89.6953 10.021 90.393 11.3147C90.7855 10.7187 91.3088 10.2463 91.963 9.89741C92.6317 9.54853 93.3585 9.37409 94.1435 9.37409C95.5535 9.37409 96.6365 9.79565 97.3924 10.6388C98.1483 11.4819 98.5262 12.7175 98.5262 14.3456V20.451H95.7352V14.6073C95.7352 13.6769 95.5535 12.9646 95.1901 12.4704C94.8412 11.9761 94.2961 11.729 93.5547 11.729C92.7988 11.729 92.1883 12.0052 91.7231 12.5576C91.2725 13.11 91.0472 13.8804 91.0472 14.8689V20.451H88.2562V14.6073C88.2562 13.6769 88.0745 12.9646 87.711 12.4704C87.3476 11.9761 86.788 11.729 86.0321 11.729C85.2907 11.729 84.6874 12.0052 84.2223 12.5576C83.7716 13.11 83.5463 13.8804 83.5463 14.8689V20.451H80.7553Z" fill="#1D2733"/>
<path d="M102.166 25.248L104.674 19.7314H104.019L99.811 9.63575H102.842L105.873 17.2456L109.034 9.63575H112L105.131 25.248H102.166Z" fill="#1D2733"/>
<defs>
<clipPath id="clip0_1_17">
<rect width="33.4044" height="29.2808" fill="white" transform="translate(0 0.359375)"/>
</clipPath>
</defs>
</svg>
