<svg width="16" height="16" viewBox="0 0 16 16" fill="none" xmlns="http://www.w3.org/2000/svg">
<mask id="mask0_1_45" style="mask-type:luminance" maskUnits="userSpaceOnUse" x="1" y="1" width="14" height="14">
<path fill-rule="evenodd" clip-rule="evenodd" d="M1.33334 1.3335H14.3179V14.3182H1.33334V1.3335Z" fill="white"/>
</mask>
<g mask="url(#mask0_1_45)">
<path fill-rule="evenodd" clip-rule="evenodd" d="M7.82589 2.3335C4.79722 2.3335 2.33322 4.79683 2.33322 7.8255C2.33322 10.8542 4.79722 13.3182 7.82589 13.3182C10.8539 13.3182 13.3179 10.8542 13.3179 7.8255C13.3179 4.79683 10.8539 2.3335 7.82589 2.3335ZM7.82589 14.3182C4.24589 14.3182 1.33322 11.4055 1.33322 7.8255C1.33322 4.2455 4.24589 1.3335 7.82589 1.3335C11.4059 1.3335 14.3179 4.2455 14.3179 7.8255C14.3179 11.4055 11.4059 14.3182 7.82589 14.3182Z" fill="#309255"/>
</g>
<mask id="mask1_1_45" style="mask-type:luminance" maskUnits="userSpaceOnUse" x="11" y="11" width="4" height="5">
<path fill-rule="evenodd" clip-rule="evenodd" d="M11.4933 11.8047H14.8427V15.1479H11.4933V11.8047Z" fill="white"/>
</mask>
<g mask="url(#mask1_1_45)">
<path fill-rule="evenodd" clip-rule="evenodd" d="M14.3428 15.1479C14.2155 15.1479 14.0875 15.0992 13.9895 15.0019L11.6402 12.6592C11.4448 12.4639 11.4442 12.1472 11.6395 11.9519C11.8342 11.7552 12.1508 11.7565 12.3468 11.9505L14.6962 14.2939C14.8915 14.4892 14.8922 14.8052 14.6968 15.0005C14.5995 15.0992 14.4708 15.1479 14.3428 15.1479Z" fill="#309255"/>
</g>
</svg>
