<svg width="142" height="86" viewBox="0 0 142 86" fill="none" xmlns="http://www.w3.org/2000/svg">
<path fill-rule="evenodd" clip-rule="evenodd" d="M3.52418 1.30255C3.17385 0.551846 2.28129 0.227277 1.53058 0.577606C0.779874 0.927936 0.455304 1.8205 0.805634 2.57121C13.643 30.08 57.7784 79.1022 133.101 60.8438L107.723 82.9323C107.098 83.4762 107.033 84.4236 107.576 85.0485C108.12 85.6734 109.068 85.7391 109.693 85.1952L139.658 59.1144L141.671 57.3626L139.128 56.5535L102.504 44.9004C101.714 44.6492 100.871 45.0855 100.62 45.875C100.368 46.6644 100.805 47.508 101.594 47.7592L133.05 57.7677C59.1551 76.0179 16.0171 28.073 3.52418 1.30255Z" fill="#FD4A18"/>
</svg>
