<svg width="25" height="24" viewBox="0 0 25 24" fill="none" xmlns="http://www.w3.org/2000/svg">
<path d="M18.4189 14.32C18.1599 14.571 18.0409 14.934 18.0999 15.29L18.9889 20.21C19.0639 20.627 18.8879 21.049 18.5389 21.29C18.1969 21.54 17.7419 21.57 17.3689 21.37L12.9399 19.06C12.7859 18.978 12.6149 18.934 12.4399 18.929H12.1689C12.0749 18.943 11.9829 18.973 11.8989 19.019L7.46888 21.34C7.24988 21.45 7.00188 21.489 6.75888 21.45C6.16688 21.338 5.77188 20.774 5.86888 20.179L6.75888 15.259C6.81788 14.9 6.69888 14.535 6.43988 14.28L2.82888 10.78C2.52688 10.487 2.42188 10.047 2.55988 9.65C2.69388 9.254 3.03588 8.965 3.44888 8.9L8.41888 8.179C8.79688 8.14 9.12888 7.91 9.29888 7.57L11.4889 3.08C11.5409 2.98 11.6079 2.888 11.6889 2.81L11.7789 2.74C11.8259 2.688 11.8799 2.645 11.9399 2.61L12.0489 2.57L12.2189 2.5H12.6399C13.0159 2.539 13.3469 2.764 13.5199 3.1L15.7389 7.57C15.8989 7.897 16.2099 8.124 16.5689 8.179L21.5389 8.9C21.9589 8.96 22.3099 9.25 22.4489 9.65C22.5799 10.051 22.4669 10.491 22.1589 10.78L18.4189 14.32Z" fill="#FFA200"/>
</svg>
