<svg width="153" height="40" viewBox="0 0 153 40" fill="none" xmlns="http://www.w3.org/2000/svg">
<g clip-path="url(#clip0_1_260)">
<path d="M24.8698 39.0889C23.7337 40.225 21.9231 40.2486 20.8225 39.1481L0.810641 19.154C-0.289951 18.0534 -0.260365 16.2427 0.869812 15.1066L15.9645 0.00012207L39.9645 23.9824L24.8698 39.0889Z" fill="#309255"/>
<path d="M15.963 -0.000113324L12.2915 3.67554L36.2962 27.6532L39.9677 23.9775L15.963 -0.000113324Z" fill="#1D2733"/>
<path d="M20.7574 39.1302C21.8935 40.2663 23.7041 40.2959 24.8047 39.1953L44.8225 19.2012C45.9231 18.1006 45.8935 16.29 44.7633 15.1539L29.6686 0.0414429L5.66272 24.0178L20.7574 39.1302Z" fill="#309255"/>
<path opacity="0.5" d="M34.1538 21.0237C34.9527 21.8225 36.2308 21.8462 37.0118 21.071L38.3373 19.8817C39.1124 19.1065 39.0947 17.8284 38.2959 17.0237L31.1775 9.94086L27.0414 13.9409L34.1538 21.0237Z" fill="white"/>
<path d="M29.6692 0.0391515L5.66782 24.0236L9.34035 27.6987L33.3417 3.71428L29.6692 0.0391515Z" fill="#FFA200"/>
</g>
<path d="M55.6331 27.4468V6.59574H69.2459V9.66383H59.4459V15.383H68.3523V18.3617H59.4459V24.3787H69.2459V27.4468H55.6331Z" fill="#1D2733"/>
<path d="M79.556 27.8043C78.166 27.8043 76.9248 27.4667 75.8326 26.7915C74.7404 26.1163 73.8766 25.1929 73.2411 24.0213C72.6057 22.8496 72.2879 21.5191 72.2879 20.0298C72.2879 18.5404 72.6057 17.2199 73.2411 16.0681C73.8766 14.8965 74.7404 13.983 75.8326 13.3277C76.9248 12.6525 78.166 12.3149 79.556 12.3149C80.6681 12.3149 81.6411 12.5234 82.4752 12.9404C83.3092 13.3574 83.9844 13.9433 84.5007 14.6979V6H88.3135V27.4468H84.9177L84.5007 25.3319C84.0241 25.9872 83.3887 26.5631 82.5943 27.0596C81.8199 27.556 80.8071 27.8043 79.556 27.8043ZM80.3603 24.4681C81.5915 24.4681 82.5943 24.061 83.3688 23.2468C84.1631 22.4128 84.5603 21.3504 84.5603 20.0596C84.5603 18.7688 84.1631 17.7163 83.3688 16.9021C82.5943 16.0681 81.5915 15.6511 80.3603 15.6511C79.1489 15.6511 78.1461 16.0582 77.3518 16.8723C76.5574 17.6865 76.1603 18.739 76.1603 20.0298C76.1603 21.3206 76.5574 22.383 77.3518 23.217C78.1461 24.0511 79.1489 24.4681 80.3603 24.4681Z" fill="#1D2733"/>
<path d="M97.7365 27.8043C95.8897 27.8043 94.4599 27.2284 93.4471 26.0766C92.4542 24.9248 91.9578 23.2369 91.9578 21.0128V12.6723H95.7407V20.6553C95.7407 21.9262 95.9989 22.8993 96.5152 23.5745C97.0315 24.2496 97.8457 24.5872 98.9578 24.5872C100.01 24.5872 100.874 24.2099 101.549 23.4553C102.244 22.7007 102.592 21.6482 102.592 20.2979V12.6723H106.405V27.4468H103.039L102.741 24.9447C102.284 25.8184 101.619 26.5135 100.745 27.0298C99.8911 27.5461 98.8883 27.8043 97.7365 27.8043Z" fill="#1D2733"/>
<path d="M110.319 27.4468V12.6723H113.685L114.012 14.6681C114.489 13.9532 115.114 13.3872 115.889 12.9702C116.683 12.5333 117.597 12.3149 118.629 12.3149C120.913 12.3149 122.531 13.1986 123.485 14.966C124.021 14.1518 124.736 13.5064 125.629 13.0298C126.543 12.5532 127.536 12.3149 128.608 12.3149C130.534 12.3149 132.014 12.8908 133.046 14.0426C134.079 15.1943 134.595 16.8823 134.595 19.1064V27.4468H130.782V19.4638C130.782 18.1929 130.534 17.2199 130.038 16.5447C129.561 15.8695 128.816 15.5319 127.804 15.5319C126.771 15.5319 125.937 15.9092 125.302 16.6638C124.686 17.4184 124.378 18.4709 124.378 19.8213V27.4468H120.565V19.4638C120.565 18.1929 120.317 17.2199 119.821 16.5447C119.324 15.8695 118.56 15.5319 117.527 15.5319C116.514 15.5319 115.69 15.9092 115.055 16.6638C114.439 17.4184 114.131 18.4709 114.131 19.8213V27.4468H110.319Z" fill="#1D2733"/>
<path d="M139.567 34L142.993 26.4638H142.099L136.35 12.6723H140.491L144.631 23.0681L148.95 12.6723H153.001L143.618 34H139.567Z" fill="#1D2733"/>
<defs>
<clipPath id="clip0_1_260">
<rect width="45.6331" height="40" fill="white"/>
</clipPath>
</defs>
</svg>
